<svg width="156" height="49" viewBox="0 0 156 49" fill="none" xmlns="http://www.w3.org/2000/svg">
<g opacity="0.9" clip-path="url(#clip0)">
<path d="M67.7627 6H75.9107V41.7609H67.7627V6Z" fill="#0023C8"/>
<path d="M94.2675 36.3944C95.033 36.3944 95.7644 36.3772 96.4607 36.3428C97.1582 36.3082 97.715 36.2568 98.1323 36.188V30.3568C97.8193 30.2878 97.3493 30.2192 96.7221 30.1505C96.095 30.0815 95.5206 30.0471 94.999 30.0471C94.2675 30.0471 93.5712 30.0987 92.909 30.202C92.283 30.2707 91.725 30.4255 91.2374 30.6665C90.7498 30.9072 90.3676 31.2339 90.0886 31.6469C89.8096 32.0598 89.6701 32.5758 89.6701 33.195C89.6701 34.399 90.071 35.242 90.8717 35.7236C91.7074 36.1706 92.8398 36.3944 94.2675 36.3944ZM93.6404 13.8954C95.9391 13.8954 97.8545 14.1535 99.3866 14.6695C100.919 15.1855 102.138 15.9251 103.043 16.8884C103.983 17.8516 104.645 19.0214 105.027 20.3974C105.411 21.7735 105.603 23.3046 105.603 24.99V40.987C104.488 41.2277 102.938 41.503 100.954 41.8127C98.9681 42.1566 96.5651 42.3286 93.7447 42.3286C91.9688 42.3286 90.35 42.1738 88.8871 41.8641C87.4594 41.5546 86.2227 41.0558 85.1783 40.3678C84.1338 39.6452 83.3332 38.7164 82.7752 37.5811C82.2184 36.4459 81.9395 35.0526 81.9395 33.4014C81.9395 31.8189 82.2536 30.4773 82.8796 29.3764C83.5419 28.2755 84.4128 27.3982 85.4912 26.7446C86.5708 26.091 87.8075 25.6265 89.2001 25.3512C90.5938 25.0416 92.0392 24.887 93.5361 24.887C94.5465 24.887 95.4339 24.9386 96.2005 25.0416C97.0011 25.1105 97.6447 25.2138 98.1323 25.3512V24.6289C98.1323 23.3217 97.7326 22.2723 96.9308 21.481C96.1302 20.6898 94.7376 20.2944 92.7519 20.2944C91.4296 20.2944 90.1238 20.3974 88.8344 20.6039C87.5461 20.776 86.4325 21.0338 85.4912 21.3778L84.4995 15.1855C84.952 15.048 85.5088 14.9104 86.1711 14.7727C86.8674 14.6007 87.6164 14.4631 88.4171 14.3598C89.2177 14.2222 90.0535 14.1191 90.9244 14.0502C91.8293 13.9471 92.7355 13.8954 93.6404 13.8954Z" fill="#0023C8"/>
<path d="M129.199 21.4295C128.502 21.2576 127.684 21.0856 126.744 20.9137C125.804 20.707 124.794 20.604 123.714 20.604C123.226 20.604 122.634 20.6555 121.938 20.7588C121.277 20.8275 120.772 20.9137 120.424 21.0167V41.7612H112.64V16.0629C114.034 15.5812 115.67 15.1339 117.55 14.7212C119.466 14.2739 121.59 14.0502 123.923 14.0502C124.341 14.0502 124.846 14.0848 125.438 14.1535C126.03 14.1879 126.622 14.2568 127.214 14.3599C127.806 14.4288 128.398 14.5318 128.99 14.6695C129.582 14.7728 130.087 14.9105 130.505 15.0824L129.199 21.4295Z" fill="#0023C8"/>
<path d="M144.665 36.3944C145.431 36.3944 146.163 36.3772 146.859 36.3428C147.555 36.3082 148.112 36.2568 148.531 36.188V30.3568C148.218 30.2878 147.748 30.2192 147.121 30.1505C146.493 30.0815 145.919 30.0471 145.396 30.0471C144.665 30.0471 143.969 30.0987 143.307 30.202C142.68 30.2707 142.123 30.4255 141.636 30.6665C141.148 30.9072 140.765 31.2339 140.487 31.6469C140.208 32.0598 140.069 32.5758 140.069 33.195C140.069 34.399 140.469 35.242 141.27 35.7236C142.106 36.1706 143.237 36.3944 144.665 36.3944ZM144.039 13.8954C146.336 13.8954 148.252 14.1535 149.784 14.6695C151.317 15.1855 152.535 15.9251 153.441 16.8884C154.381 17.8516 155.042 19.0214 155.426 20.3974C155.809 21.7735 156 23.3046 156 24.99V40.987C154.885 41.2277 153.337 41.503 151.351 41.8127C149.367 42.1566 146.963 42.3286 144.143 42.3286C142.367 42.3286 140.747 42.1738 139.286 41.8641C137.858 41.5546 136.621 41.0558 135.577 40.3678C134.532 39.6452 133.73 38.7164 133.174 37.5811C132.617 36.4459 132.338 35.0526 132.338 33.4014C132.338 31.8189 132.651 30.4773 133.278 29.3764C133.94 28.2755 134.81 27.3982 135.89 26.7446C136.969 26.091 138.206 25.6265 139.599 25.3512C140.991 25.0416 142.436 24.887 143.935 24.887C144.944 24.887 145.832 24.9386 146.598 25.0416C147.4 25.1105 148.043 25.2138 148.531 25.3512V24.6289C148.531 23.3217 148.13 22.2723 147.329 21.481C146.529 20.6898 145.136 20.2944 143.15 20.2944C141.827 20.2944 140.521 20.3974 139.233 20.6039C137.945 20.776 136.83 21.0338 135.89 21.3778L134.897 15.1855C135.35 15.048 135.907 14.9104 136.568 14.7727C137.266 14.6007 138.014 14.4631 138.814 14.3598C139.616 14.2222 140.452 14.1191 141.323 14.0502C142.228 13.9471 143.133 13.8954 144.039 13.8954Z" fill="#0023C8"/>
<path fill-rule="evenodd" clip-rule="evenodd" d="M47.7571 24.5C47.7571 37.4523 37.1444 48.0916 23.8786 48.0916C10.7688 48.0916 0 37.4523 0 24.5C0 11.5478 10.6127 0.908386 23.8786 0.908386C36.9884 0.908386 47.7571 11.3936 47.7571 24.5ZM44.0114 24.3463C44.0114 35.294 34.9594 44.2372 23.8786 44.2372C12.7976 44.2372 3.74561 35.4481 3.74561 24.3463C3.74561 13.3985 12.7976 4.45526 23.8786 4.45526C34.9594 4.45526 44.0114 13.3985 44.0114 24.3463Z" fill="#0023C8"/>
<path d="M16.0809 14.6483C17.2441 14.6483 18.1871 13.711 18.1871 12.5548C18.1871 11.3986 17.2441 10.4613 16.0809 10.4613C14.9176 10.4613 13.9746 11.3986 13.9746 12.5548C13.9746 13.711 14.9176 14.6483 16.0809 14.6483Z" fill="#0023C8"/>
<path fill-rule="evenodd" clip-rule="evenodd" d="M18.177 25.4096C18.177 22.2338 20.7614 19.6649 23.9565 19.6649C27.1516 19.6649 29.736 22.2338 29.736 25.4096C29.736 25.4096 29.736 27.9178 29.736 31.5285C29.736 35.139 33.9384 35.139 33.9384 35.139V25.4096C33.9384 19.9279 29.4715 15.488 23.9565 15.488C18.4415 15.488 13.9746 19.9279 13.9746 25.4096H18.177Z" fill="#0023C8" fill-opacity="0.5"/>
<path fill-rule="evenodd" clip-rule="evenodd" d="M29.736 31.5285C29.736 27.9178 29.736 25.4096 29.736 25.4096C29.736 25.3893 29.736 25.3591 29.736 25.3388C29.675 28.4539 27.1109 30.9621 23.9565 30.9621C20.7614 30.9621 18.177 28.3931 18.177 25.2174C18.177 25.2174 18.177 22.7092 18.177 19.0986C18.177 15.488 13.9746 15.488 13.9746 15.488V25.2174C13.9746 30.6991 18.4415 35.139 23.9565 35.139C26.2561 35.139 28.3725 34.3705 30.0616 33.0657C29.8581 32.651 29.736 32.1454 29.736 31.5285Z" fill="#0023C8"/>
</g>
<defs>
<clipPath id="clip0">
<rect width="156" height="49" fill="white"/>
</clipPath>
</defs>
</svg>
