<svg width="108" height="42" viewBox="0 0 108 42" fill="none" xmlns="http://www.w3.org/2000/svg">
<path d="M47.7854 35.6226H43.2376V16.1676C43.2376 14.7399 44.3832 13.5874 45.8022 13.5874H47.7854V35.6226Z" fill="#0023C8"/>
<path d="M55.9233 13.5872H61.1037L68.8485 35.6224H63.8905L62.4372 31.0984H54.3675L52.8801 35.6224H48.093L55.9233 13.5872ZM55.6156 27.2968H61.2234L58.4536 18.6272L55.6156 27.2968Z" fill="#0023C8"/>
<path d="M83.2612 14.1549C84.0648 14.4989 84.7486 15.015 85.3128 15.703C85.7744 16.2535 86.1506 16.8727 86.4071 17.5608C86.6806 18.2316 86.8174 19.0057 86.8174 19.883C86.8174 20.9322 86.5609 21.9643 86.0309 22.962C85.5009 23.977 84.6461 24.6822 83.4322 25.1122C84.4409 25.5251 85.159 26.11 85.5864 26.8496C86.0138 27.6065 86.2189 28.759 86.2189 30.2899V31.7693C86.2189 32.7841 86.2531 33.455 86.3386 33.8162C86.4583 34.3839 86.7489 34.7967 87.1764 35.072V35.6224H82.1157C81.979 35.1408 81.8764 34.7451 81.8251 34.4355C81.7054 33.8162 81.637 33.1797 81.637 32.5433L81.6029 30.4963C81.5857 29.0858 81.3464 28.1569 80.8848 27.6924C80.4232 27.2281 79.5513 26.9873 78.269 26.9873H73.8067V35.6224H69.3274V13.5872H79.8077C81.3122 13.6216 82.4577 13.8108 83.2612 14.1549ZM73.8067 17.4231V23.3405H78.7306C79.7051 23.3405 80.4402 23.2201 80.9361 22.9793C81.808 22.5664 82.2354 21.7408 82.2354 20.5023C82.2354 19.1605 81.808 18.266 80.9874 17.8188C80.5087 17.5608 79.8077 17.4231 78.8674 17.4231H73.8067Z" fill="#0023C8"/>
<path d="M95.0748 13.5872H100.255L108 35.6224H103.042L101.589 31.0984H93.519L92.0316 35.6224H87.2445L95.0748 13.5872ZM94.767 27.2968H100.375L97.6051 18.6272L94.767 27.2968Z" fill="#0023C8"/>
<path d="M3.53903 7.12145C5.49357 7.12145 7.07805 5.52726 7.07805 3.56073C7.07805 1.59419 5.49357 0 3.53903 0C1.58448 0 0 1.59419 0 3.56073C0 5.52726 1.58448 7.12145 3.53903 7.12145Z" fill="#0023C8"/>
<path fill-rule="evenodd" clip-rule="evenodd" d="M7.06095 25.4238C7.06095 20.0225 11.4035 15.6533 16.7719 15.6533C22.1403 15.6533 26.4828 20.0225 26.4828 25.4238C26.4828 25.4238 26.4828 29.6898 26.4828 35.8308C26.4828 41.9717 33.5438 41.9717 33.5438 41.9717V25.4238C33.5438 16.1005 26.0383 8.54907 16.7719 8.54907C7.50546 8.54907 0 16.1005 0 25.4238H7.06095Z" fill="#0023C8" fill-opacity="0.51"/>
<path fill-rule="evenodd" clip-rule="evenodd" d="M26.4828 35.8308C26.4828 29.6898 26.4828 25.4238 26.4828 25.4238C26.4828 25.3894 26.4828 25.3378 26.4828 25.3034C26.3803 30.6015 22.0719 34.8674 16.7719 34.8674C11.4035 34.8674 7.06095 30.4983 7.06095 25.097C7.06095 25.097 7.06095 20.831 7.06095 14.69C7.06095 8.54907 0 8.54907 0 8.54907V25.097C0 34.4202 7.50546 41.9717 16.7719 41.9717C20.6358 41.9717 24.1919 40.6644 27.03 38.4454C26.688 37.7402 26.4828 36.8801 26.4828 35.8308Z" fill="#0023C8"/>
</svg>
