<svg xmlns="http://www.w3.org/2000/svg" viewBox="0 0 22.31 22.31"><defs><style>.cls-1{fill:#0023c8;}</style></defs><g id="Camada_2" data-name="Camada 2"><g id="Layer_1" data-name="Layer 1"><path class="cls-1" d="M11.16,2c3,0,3.33,0,4.5.07a6,6,0,0,1,2.07.38A3.37,3.37,0,0,1,19,3.29a3.45,3.45,0,0,1,.83,1.29,6.17,6.17,0,0,1,.39,2.07c.05,1.17.06,1.53.06,4.51s0,3.33-.06,4.5a6.17,6.17,0,0,1-.39,2.07,3.62,3.62,0,0,1-2.12,2.12,6.17,6.17,0,0,1-2.07.39c-1.17.05-1.53.06-4.5.06s-3.34,0-4.51-.06a6.17,6.17,0,0,1-2.07-.39A3.45,3.45,0,0,1,3.29,19a3.37,3.37,0,0,1-.83-1.29,6.17,6.17,0,0,1-.39-2.07C2,14.49,2,14.13,2,11.16s0-3.34.06-4.51a6.17,6.17,0,0,1,.39-2.07A3.62,3.62,0,0,1,4.58,2.46a6,6,0,0,1,2.07-.38C7.82,2,8.18,2,11.16,2m0-2c-3,0-3.41,0-4.6.07A8,8,0,0,0,3.85.59a5.35,5.35,0,0,0-2,1.28,5.35,5.35,0,0,0-1.28,2A8,8,0,0,0,.07,6.56C0,7.75,0,8.13,0,11.16s0,3.41.07,4.6a8,8,0,0,0,.52,2.7,5.35,5.35,0,0,0,1.28,2,5.5,5.5,0,0,0,2,1.29,8.26,8.26,0,0,0,2.71.51c1.19.06,1.57.07,4.6.07s3.4,0,4.59-.07a8.26,8.26,0,0,0,2.71-.51,5.72,5.72,0,0,0,3.27-3.27,8.24,8.24,0,0,0,.51-2.7c.06-1.19.07-1.57.07-4.6s0-3.41-.07-4.6a8.26,8.26,0,0,0-.51-2.71,5.5,5.5,0,0,0-1.29-2,5.35,5.35,0,0,0-2-1.28A8,8,0,0,0,15.75.07C14.56,0,14.19,0,11.16,0"/><path class="cls-1" d="M11.16,5.43a5.73,5.73,0,1,0,5.72,5.73,5.72,5.72,0,0,0-5.72-5.73m0,9.44a3.72,3.72,0,1,1,3.71-3.71,3.71,3.71,0,0,1-3.71,3.71"/><path class="cls-1" d="M18.45,5.2a1.34,1.34,0,1,1-1.34-1.34A1.34,1.34,0,0,1,18.45,5.2"/></g></g></svg>