<svg width="23" height="23" viewBox="0 0 23 23" fill="none" xmlns="http://www.w3.org/2000/svg">
<g clip-path="url(#clip0)">
<path d="M11.16 2C14.16 2 14.49 2 15.66 2.07C16.367 2.07372 17.0678 2.20236 17.73 2.45C18.2119 2.62944 18.6463 2.91678 19 3.29C19.37 3.65227 19.6536 4.09316 19.83 4.58C20.0777 5.24254 20.2096 5.94275 20.22 6.65C20.27 7.82 20.28 8.18 20.28 11.16C20.28 14.14 20.28 14.49 20.22 15.66C20.2096 16.3673 20.0777 17.0675 19.83 17.73C19.6486 18.2143 19.3655 18.6541 18.9998 19.0198C18.6341 19.3855 18.1943 19.6686 17.71 19.85C17.0475 20.0977 16.3473 20.2296 15.64 20.24C14.47 20.29 14.11 20.3 11.14 20.3C8.17 20.3 7.8 20.3 6.63 20.24C5.92275 20.2296 5.22254 20.0977 4.56 19.85C4.07845 19.6652 3.64447 19.3747 3.29 19C2.91785 18.6395 2.63382 18.1981 2.46 17.71C2.21231 17.0475 2.08039 16.3473 2.07 15.64C2 14.49 2 14.13 2 11.16C2 8.19 2 7.82 2.06 6.65C2.07039 5.94275 2.20231 5.24254 2.45 4.58C2.63251 4.09471 2.91713 3.65428 3.28461 3.28853C3.65209 2.92277 4.09385 2.64022 4.58 2.46C5.24222 2.21236 5.943 2.08372 6.65 2.08C7.82 2 8.18 2 11.16 2ZM11.16 0C8.16 0 7.75 0 6.56 0.07C5.63337 0.0850556 4.71639 0.261006 3.85 0.59C3.09587 0.861466 2.41237 1.29891 1.85 1.87C1.27891 2.43237 0.841466 3.11587 0.57 3.87C0.250098 4.7313 0.0809583 5.64127 0.07 6.56C0 7.75 0 8.13 0 11.16C0 14.19 0 14.57 0.07 15.76C0.0862092 16.6833 0.262141 17.5968 0.59 18.46C0.861466 19.2141 1.29891 19.8976 1.87 20.46C2.43453 21.0308 3.11717 21.4711 3.87 21.75C4.73837 22.0707 5.65447 22.2431 6.58 22.26C7.77 22.32 8.15 22.33 11.18 22.33C14.21 22.33 14.58 22.33 15.77 22.26C16.6955 22.2431 17.6116 22.0707 18.48 21.75C19.2227 21.4626 19.8971 21.0233 20.4602 20.4602C21.0233 19.8971 21.4626 19.2227 21.75 18.48C22.0699 17.6149 22.2423 16.7022 22.26 15.78C22.32 14.59 22.33 14.21 22.33 11.18C22.33 8.15 22.33 7.77 22.26 6.58C22.2431 5.65447 22.0707 4.73837 21.75 3.87C21.4711 3.11717 21.0308 2.43453 20.46 1.87C19.8976 1.29891 19.2141 0.861466 18.46 0.59C17.5936 0.261006 16.6766 0.0850556 15.75 0.07C14.56 0 14.19 0 11.16 0Z" fill="white"/>
<path d="M11.1619 5.4297C10.0282 5.42772 8.91935 5.76209 7.97574 6.39051C7.03213 7.01893 6.29615 7.91314 5.86092 8.95998C5.4257 10.0068 5.3108 11.1593 5.53076 12.2714C5.75072 13.3836 6.29566 14.4055 7.09662 15.2079C7.89757 16.0102 8.91854 16.5569 10.0303 16.7789C11.1421 17.0008 12.2947 16.8879 13.3423 16.4545C14.3899 16.0211 15.2854 15.2867 15.9155 14.3442C16.5456 13.4016 16.8819 12.2934 16.8819 11.1597C16.8832 10.4077 16.7362 9.66281 16.4493 8.96768C16.1625 8.27254 15.7413 7.64079 15.2101 7.10858C14.6788 6.57637 14.0478 6.15414 13.3531 5.86606C12.6585 5.57798 11.9139 5.4297 11.1619 5.4297ZM11.1619 14.8697C10.4253 14.8717 9.70468 14.6549 9.0914 14.2469C8.47812 13.8389 7.99977 13.2581 7.71697 12.5779C7.43418 11.8978 7.35967 11.149 7.50288 10.4264C7.6461 9.70388 8.0006 9.04013 8.52145 8.51927C9.04231 7.99842 9.70606 7.64392 10.4286 7.5007C11.1511 7.35748 11.8999 7.432 12.5801 7.71479C13.2602 7.99759 13.8411 8.47594 14.2491 9.08922C14.6571 9.7025 14.8739 10.4231 14.8719 11.1597C14.8719 12.1436 14.481 13.0873 13.7852 13.7831C13.0895 14.4788 12.1458 14.8697 11.1619 14.8697" fill="white"/>
<path d="M18.4495 5.20035C18.4495 5.46538 18.3709 5.72445 18.2237 5.94482C18.0765 6.16518 17.8672 6.33693 17.6223 6.43835C17.3775 6.53977 17.108 6.56631 16.8481 6.5146C16.5882 6.4629 16.3494 6.33528 16.162 6.14787C15.9746 5.96047 15.847 5.72171 15.7953 5.46177C15.7436 5.20184 15.7701 4.93241 15.8715 4.68756C15.973 4.4427 16.1447 4.23342 16.3651 4.08618C16.5854 3.93894 16.8445 3.86035 17.1095 3.86035C17.4649 3.86035 17.8058 4.00153 18.0571 4.25283C18.3084 4.50413 18.4495 4.84496 18.4495 5.20035Z" fill="white"/>
</g>
<defs>
<clipPath id="clip0">
<rect width="22.31" height="22.31" fill="white"/>
</clipPath>
</defs>
</svg>
