<svg width="274" height="49" viewBox="0 0 274 49" fill="none" xmlns="http://www.w3.org/2000/svg">
<g opacity="0.9" clip-path="url(#clip0)">
<path d="M0 47.6193V20.1219H7.27468V47.6193H0Z" fill="#0023C8"/>
<path d="M23.8624 48.3474C21.6282 48.3474 19.6371 47.9951 17.889 47.2826C16.1408 46.5701 14.6593 45.5836 13.452 44.3152C12.2448 43.0468 11.3198 41.5122 10.6848 39.7271C10.0499 37.9341 9.73633 35.9767 9.73633 33.8471C9.73633 31.6783 10.0577 29.7053 10.7162 27.9123C11.3668 26.1193 12.3075 24.5926 13.5383 23.3242C14.769 22.0558 16.2506 21.0771 17.9752 20.3881C19.7076 19.6991 21.6674 19.3546 23.8624 19.3546C26.0181 19.3546 27.9544 19.6991 29.6711 20.3881C31.3801 21.0771 32.846 22.048 34.0532 23.3007C35.2604 24.5534 36.1933 26.0724 36.8439 27.8653C37.4946 29.6583 37.8238 31.6548 37.8238 33.8549C37.8238 36.055 37.4946 38.0437 36.8439 39.8211C36.1933 41.5905 35.2604 43.1173 34.0532 44.3857C32.846 45.6541 31.3722 46.6328 29.6398 47.3296C27.9152 48.0029 25.9868 48.3474 23.8624 48.3474ZM23.8937 42.256C28.3306 42.256 30.5491 39.4609 30.5491 33.8706C30.5491 28.3194 28.3306 25.54 23.8937 25.54C19.4568 25.54 17.2383 28.3194 17.2383 33.8706C17.2305 39.4609 19.4489 42.256 23.8937 42.256Z" fill="#0023C8"/>
<path d="M57.8525 47.6193V30.9659C57.8525 28.8441 57.4998 27.4113 56.7864 26.6596C56.0809 25.9158 54.8658 25.54 53.1491 25.54C49.3785 25.54 47.4971 27.6461 47.4971 31.8584V47.6193H40.2224V20.1219H47.16V24.1307C48.0145 22.5491 49.1511 21.359 50.5622 20.5526C51.9732 19.7461 53.7997 19.339 56.026 19.339C57.3273 19.339 58.5345 19.5347 59.6555 19.9262C60.7687 20.3177 61.7329 20.9049 62.5246 21.6879C63.3242 22.4708 63.9592 23.4338 64.4217 24.5691C64.8842 25.7044 65.1194 27.0198 65.1194 28.5152V47.6115H57.8525V47.6193Z" fill="#0023C8"/>
<path d="M68.2629 47.6193V20.1219H75.5376V47.6193H68.2629Z" fill="#0023C8"/>
<path d="M103.398 37.6758C103.21 39.2808 102.755 40.7293 102.026 42.0368C101.297 43.3444 100.372 44.4562 99.2588 45.3879C98.1378 46.3196 96.86 47.0478 95.4254 47.5645C93.9909 48.0891 92.4309 48.3475 90.7533 48.3475C88.8876 48.3475 87.1787 48.0421 85.6344 47.4236C84.0823 46.805 82.7496 45.8812 81.6365 44.6284C80.5155 43.3835 79.6532 41.8333 79.0339 39.9933C78.4224 38.1456 78.1089 36.0003 78.1089 33.534C78.1089 31.0755 78.4146 28.9537 79.0339 27.1607C79.6532 25.3677 80.5155 23.9114 81.6365 22.7762C82.7574 21.6409 84.1058 20.7953 85.6893 20.2316C87.2728 19.6757 89.0366 19.3938 90.9807 19.3938C92.768 19.3938 94.3985 19.6365 95.8801 20.1219C97.3538 20.6074 98.6395 21.312 99.7369 22.2438C100.834 23.1755 101.704 24.2951 102.339 25.5948C102.974 26.9023 103.351 28.3508 103.46 29.9559H96.1309C95.9428 28.5387 95.3784 27.4347 94.422 26.6283C93.4735 25.8297 92.3055 25.4304 90.9258 25.4304C90.1419 25.4304 89.4128 25.5635 88.7387 25.8219C88.0645 26.0802 87.4766 26.5187 86.9749 27.1372C86.4732 27.7479 86.0734 28.57 85.7755 29.5957C85.4776 30.6214 85.3287 31.8819 85.3287 33.3695C85.3287 36.3839 85.8696 38.6232 86.9514 40.0795C88.0332 41.5358 89.2796 42.2561 90.6985 42.2561C92.1173 42.2561 93.3324 41.8646 94.3358 41.0816C95.347 40.2987 95.9193 39.1634 96.0682 37.6758H103.398Z" fill="#0023C8"/>
<path d="M123.952 47.6194V30.5744C123.952 28.4918 123.591 27.0668 122.862 26.2995C122.133 25.54 120.934 25.1564 119.256 25.1564C118.363 25.1564 117.555 25.3365 116.85 25.6888C116.144 26.0411 115.54 26.5266 115.062 27.1451C114.576 27.7558 114.216 28.4683 113.973 29.2669C113.73 30.0655 113.612 30.9346 113.612 31.8663V47.6273H106.337V10.0688H113.612L113.596 23.7079C113.855 23.1129 114.255 22.5413 114.796 22.0011C115.337 21.4608 115.956 21.0067 116.669 20.6309C117.375 20.2629 118.159 19.9576 119.013 19.7383C119.868 19.5191 120.761 19.4017 121.694 19.4017C124.524 19.4017 126.821 20.1768 128.593 21.7192C130.356 23.2695 131.242 25.4148 131.242 28.1708V47.6194H123.952Z" fill="#0023C8"/>
<path d="M140.853 35.7732C140.963 37.8559 141.574 39.5157 142.672 40.745C143.769 41.9742 145.219 42.5849 147.007 42.5849C148.198 42.5849 149.256 42.3187 150.166 41.7785C151.075 41.2382 151.663 40.4866 151.93 39.5157H159.424C158.561 42.35 157.072 44.5266 154.948 46.0534C152.823 47.5802 150.283 48.3475 147.336 48.3475C138.156 48.3475 133.57 43.3522 133.57 33.3695C133.57 31.2477 133.868 29.3295 134.464 27.6148C135.06 25.9002 135.93 24.4282 137.067 23.199C138.203 21.9697 139.591 21.0302 141.237 20.3725C142.875 19.7226 144.765 19.3938 146.889 19.3938C151.138 19.3938 154.36 20.7561 156.539 23.473C158.726 26.1898 159.816 30.2925 159.816 35.7654H140.853V35.7732ZM152.321 31.1929C152.282 30.1907 152.11 29.306 151.788 28.5387C151.475 27.7792 151.052 27.145 150.526 26.6361C150.001 26.135 149.405 25.7592 148.739 25.5165C148.065 25.2738 147.375 25.1485 146.67 25.1485C145.211 25.1485 143.957 25.6809 142.891 26.7457C141.825 27.8106 141.221 29.2903 141.072 31.1851H152.321V31.1929Z" fill="#0023C8"/>
<path d="M179.288 47.6193C179.069 46.9147 178.92 46.0926 178.841 45.1608C177.979 46.1317 176.842 46.899 175.423 47.4784C174.004 48.0578 172.366 48.3475 170.5 48.3475C167.333 48.3475 165.005 47.6506 163.531 46.2491C162.058 44.8555 161.321 43.039 161.321 40.7998C161.321 38.8267 161.642 37.253 162.277 36.0786C162.912 34.9041 163.79 33.9802 164.903 33.3147C166.024 32.6414 167.357 32.1481 168.901 31.8349C170.446 31.5218 172.139 31.2321 173.965 30.9659C175.792 30.7075 177.023 30.363 177.657 29.9324C178.292 29.5017 178.606 28.8049 178.606 27.834C178.606 26.9415 178.183 26.2447 177.344 25.7357C176.505 25.2346 175.376 24.9841 173.957 24.9841C172.28 24.9841 171.073 25.3599 170.351 26.1037C169.622 26.8475 169.168 27.834 168.98 29.0633H162.214C162.254 27.6461 162.481 26.3464 162.912 25.1485C163.343 23.9584 164.033 22.9328 164.982 22.0793C165.93 21.2259 167.169 20.5604 168.697 20.0906C170.226 19.6287 172.084 19.3938 174.279 19.3938C176.435 19.3938 178.269 19.6365 179.774 20.1219C181.279 20.6074 182.486 21.3042 183.396 22.2203C184.305 23.1363 184.964 24.2716 185.371 25.6339C185.779 26.9963 185.983 28.5309 185.983 30.2456V47.6271H179.288V47.6193ZM178.786 34.1525C178.41 34.5283 177.869 34.8258 177.164 35.0451C176.458 35.2721 175.431 35.5148 174.083 35.7732C171.99 36.1803 170.555 36.7049 169.771 37.3391C168.987 37.9733 168.595 38.8815 168.595 40.0795C168.595 42.1308 169.771 43.1565 172.123 43.1565C173.056 43.1565 173.926 42.9999 174.726 42.6789C175.525 42.3657 176.215 41.9351 176.795 41.3948C177.375 40.8546 177.838 40.2204 178.191 39.4922C178.543 38.7641 178.724 37.989 178.724 37.1747L178.786 34.1525Z" fill="#0023C8"/>
<path d="M188.969 47.6194V10.0688H196.244V47.6273H188.969V47.6194Z" fill="#0023C8"/>
<path d="M214.705 29.5096H221.423V37.3314C221.423 38.7798 221.212 40.1735 220.78 41.4967C220.349 42.8199 219.683 43.9943 218.774 45.02C217.864 46.0456 216.712 46.8521 215.317 47.455C213.921 48.05 212.259 48.3475 210.323 48.3475C208.316 48.3475 206.599 48.05 205.188 47.455C203.777 46.8599 202.609 46.0613 201.7 45.0513C200.791 44.0413 200.132 42.8747 199.717 41.528C199.309 40.1891 199.105 38.772 199.105 37.2766V12.6918H206.325V20.122H221.431V25.266H206.325V36.5562C206.325 38.31 206.646 39.6567 207.297 40.6119C207.948 41.5593 209.014 42.0369 210.495 42.0369C211.938 42.0369 213.004 41.575 213.694 40.6433C214.376 39.7115 214.721 38.3883 214.721 36.6737V29.5096H214.705Z" fill="#0023C8"/>
<path d="M241.734 47.6194V30.5744C241.734 28.4918 241.374 27.0668 240.645 26.2995C239.916 25.54 238.716 25.1564 237.039 25.1564C236.145 25.1564 235.338 25.3365 234.632 25.6888C233.927 26.0411 233.323 26.5266 232.845 27.1451C232.359 27.7558 231.998 28.4683 231.755 29.2669C231.512 30.0655 231.394 30.9346 231.394 31.8663V47.6273H224.12V10.0688H231.394L231.379 23.7079C231.638 23.1129 232.037 22.5413 232.578 22.0011C233.119 21.4608 233.738 21.0067 234.452 20.6309C235.157 20.2629 235.941 19.9576 236.796 19.7383C237.65 19.5191 238.544 19.4017 239.477 19.4017C242.307 19.4017 244.603 20.1768 246.375 21.7192C248.139 23.2695 249.025 25.4148 249.025 28.1708V47.6194H241.734Z" fill="#0023C8"/>
<path d="M270.574 20.9675V23.2146H270.222V20.9675H269.508V20.6465H271.288V20.9675H270.574ZM273.655 23.2146V21.3668L273.044 22.5804H272.707L272.095 21.3668V23.2146H271.75V20.6465H272.095L272.879 22.2046L273.663 20.6465H274.008V23.2146H273.655Z" fill="#0023C8"/>
<path d="M272.464 12.3864C271.327 10.9692 268.701 9.82611 265.408 9.15277C264.46 3.82085 261.975 0.0235213 259.043 0.00786218C256.135 -0.00779691 253.626 3.67992 252.591 8.91789C246.587 9.92007 243.42 12.4099 245.403 14.8762C246.524 16.2777 249.103 17.4051 252.333 18.0863C253.132 23.9506 255.735 28.249 258.863 28.2725C259.952 28.2804 260.987 27.7636 261.904 26.8397C264.483 24.0054 265.385 19.8166 265.691 16.8022C265.777 15.9566 265.824 15.0797 265.824 14.1872C265.824 13.8427 265.824 13.4982 265.816 13.1615H265.824C265.824 13.1615 265.824 13.138 265.824 13.0989C265.824 13.0832 265.824 13.0754 265.824 13.0754L265.949 13.138C267.109 13.4355 267.964 13.8348 268.34 14.3046C268.912 15.0171 268.309 15.7531 266.898 16.3716C266.827 16.9667 266.733 17.546 266.616 18.1019C271.735 16.9588 274.282 14.6569 272.464 12.3864ZM257.075 3.45286C258.361 3.46069 259.474 5.49638 260.031 8.49509C258.353 8.4168 256.629 8.44811 254.92 8.6047C254.614 8.63602 254.308 8.66734 254.01 8.69866C254.59 5.5825 255.751 3.44503 257.075 3.45286ZM260.368 14.4534C260.235 17.3581 259.788 18.6187 259.725 18.7909C259.09 21.2024 258.079 22.7605 256.942 22.7527C256.378 22.7527 255.845 22.3534 255.382 21.6566C254.332 20.1141 253.948 17.5069 253.948 17.5069C252.341 17.225 252.199 17.1624 252.199 17.1624C252.051 17.1154 251.909 17.0684 251.768 17.0293C250.851 16.7474 250.177 16.3951 249.856 15.988C249.26 15.2442 249.942 14.4612 251.517 13.827C251.847 13.6861 252.09 13.6078 252.09 13.6078C256.37 12.2533 260.407 12.5116 260.407 12.5116C260.407 12.6134 260.407 12.7152 260.407 12.817C260.407 12.9188 260.407 13.0206 260.407 13.1302C260.407 13.5765 260.391 14.0149 260.368 14.4534Z" fill="#0023C8"/>
</g>
<defs>
<clipPath id="clip0">
<rect width="274" height="49" fill="white"/>
</clipPath>
</defs>
</svg>
