<svg xmlns="http://www.w3.org/2000/svg" viewBox="0 0 190.85 39.2"><defs><style>.cls-1{fill:#0023c8;}</style></defs><g id="Camada_2" data-name="Camada 2"><g id="Layer_1" data-name="Layer 1"><path class="cls-1" d="M38.63.54a1.88,1.88,0,0,1,.56,1.39,1.88,1.88,0,0,1-1.91,1.91,1.88,1.88,0,0,1-1.91-1.93A1.89,1.89,0,0,1,36,.51,1.92,1.92,0,0,1,37.28,0,1.89,1.89,0,0,1,38.63.54ZM36.22.78a1.56,1.56,0,0,0-.46,1.13,1.61,1.61,0,0,0,.45,1.14,1.52,1.52,0,0,0,1.07.44,1.49,1.49,0,0,0,1-.43,1.57,1.57,0,0,0,.47-1.13A1.61,1.61,0,0,0,38.33.78a1.42,1.42,0,0,0-1-.44A1.44,1.44,0,0,0,36.22.78Zm1.07.07a.71.71,0,0,1,.53.18.63.63,0,0,1,.16.46.53.53,0,0,1-.14.39.58.58,0,0,1-.35.17l.67.86h-.49l-.62-.79v.79h-.41V.85Zm-.24.93h.17a.36.36,0,0,0,.25-.08.28.28,0,0,0,.08-.21.27.27,0,0,0-.08-.21.36.36,0,0,0-.23-.06h-.19Z"/><path class="cls-1" d="M45.1,32.91A15,15,0,0,1,39,30.66a12.91,12.91,0,0,1-5.52-8.28,43.19,43.19,0,0,0-6.53-.85c1.06,8,5.27,12.29,8.88,14.57a20.91,20.91,0,0,0,8.88,3.09.29.29,0,0,0,.32-.28l.34-5.68A.3.3,0,0,0,45.1,32.91Z"/><path class="cls-1" d="M47.65,20.22A40.91,40.91,0,0,0,33,15V.3a.3.3,0,0,0-.3-.3H27a.29.29,0,0,0-.3.3v14c-.7,0-1.66-.05-2.38-.05-.88,0-1.42,0-2.26.07V17a23.36,23.36,0,0,1-.18,3.68s1.52-.08,2.44-.08a48.59,48.59,0,0,1,9,.88,35.21,35.21,0,0,1,10.84,4,.3.3,0,0,0,.4-.09l3.21-4.7A.3.3,0,0,0,47.65,20.22Z"/><path class="cls-1" d="M14.82,21.36A37.83,37.83,0,0,0,3.66,25.43a.3.3,0,0,1-.4-.09L.05,20.64a.3.3,0,0,1,.09-.42A40.91,40.91,0,0,1,14.82,15V.3a.3.3,0,0,1,.3-.3h5.69a.29.29,0,0,1,.3.3V17.55c0,.83,0,1.64-.1,2.46C20.31,29,15.8,33.68,12,36.1a20.91,20.91,0,0,1-8.88,3.09.29.29,0,0,1-.32-.28l-.34-5.68a.3.3,0,0,1,.26-.32A15,15,0,0,0,8.8,30.66a13.69,13.69,0,0,0,6-9.32"/><path class="cls-1" d="M80.8,16.48v-2.6h7.37v5.38c0,3.9-2.22,6.23-5.94,6.23s-6-2.33-6-6.23v-.34h3v.34c0,2.51.86,3.54,3,3.54s3-1,3-3.54V16.48Z"/><path class="cls-1" d="M93.78,22.7h6.48v2.61H90.81V13.88h3Z"/><path class="cls-1" d="M121.19,22.91a6.94,6.94,0,0,1-5.7,2.58c-4,0-6.91-2.29-6.91-5.9s2.91-5.88,6.91-5.88a6.9,6.9,0,0,1,5.69,2.57l-2.34,1.52c-.58-.93-1.71-1.4-3.35-1.4-2.6,0-3.87.81-3.87,3.19s1.27,3.2,3.87,3.2c1.64,0,2.77-.47,3.36-1.4Z"/><path class="cls-1" d="M136.56,19.6c0,3.61-2.91,5.89-6.91,5.89s-6.91-2.28-6.91-5.89,2.9-5.89,6.91-5.89S136.56,16,136.56,19.6Zm-6.91-3.2c-2.61,0-3.87.82-3.87,3.2s1.26,3.2,3.87,3.2,3.87-.82,3.87-3.2S132.25,16.4,129.65,16.4Z"/><path class="cls-1" d="M141.89,22.7h7.33v2.61h-10.3V13.88H149v2.6h-7.14v1.7h5.71v2.6h-5.71Z"/><path class="cls-1" d="M154.63,22.7h6.48v2.61h-9.45V13.88h3Z"/><path class="cls-1" d="M171.68,13.88h3V25.31h-3V20.89h-5.51v4.42h-3V13.88h3v4.41h5.51Z"/><path class="cls-1" d="M190.85,19.6c0,3.61-2.91,5.89-6.92,5.89S177,23.21,177,19.6s2.91-5.89,6.91-5.89S190.85,16,190.85,19.6Zm-6.92-3.2c-2.6,0-3.86.82-3.86,3.2s1.26,3.2,3.86,3.2,3.87-.82,3.87-3.2S186.54,16.4,183.93,16.4Z"/></g></g></svg>