<svg width="191" height="40" viewBox="0 0 191 40" fill="none" xmlns="http://www.w3.org/2000/svg">
<g clip-path="url(#clip0)">
<path d="M38.6318 0.540194C38.8154 0.721108 38.9599 0.937862 39.0562 1.17698C39.1526 1.41611 39.1987 1.67249 39.1918 1.93019C39.1958 2.18214 39.1492 2.43232 39.0546 2.66589C38.9601 2.89945 38.8195 3.11162 38.6414 3.2898C38.4632 3.46797 38.251 3.60851 38.0175 3.70306C37.7839 3.79761 37.5337 3.84425 37.2818 3.84019C37.0281 3.84433 36.7762 3.79709 36.5413 3.70131C36.3064 3.60552 36.0933 3.46319 35.9148 3.28286C35.7364 3.10254 35.5963 2.88797 35.5029 2.65206C35.4096 2.41615 35.365 2.1638 35.3718 1.91019C35.373 1.64575 35.4297 1.3845 35.5382 1.14335C35.6467 0.902189 35.8047 0.68649 36.0018 0.510194C36.3506 0.187681 36.8067 0.00596997 37.2818 0.000193992C37.5313 -0.00338134 37.7791 0.0424962 38.0108 0.135179C38.2425 0.227862 38.4535 0.365515 38.6318 0.540194V0.540194ZM36.2218 0.780194C36.0731 0.927979 35.9558 1.10421 35.8767 1.29836C35.7977 1.49251 35.7586 1.7006 35.7618 1.91019C35.7556 2.33466 35.9173 2.74438 36.2118 3.05019C36.4965 3.33217 36.881 3.4903 37.2818 3.49019C37.6574 3.47811 38.0146 3.32451 38.2818 3.06019C38.4318 2.9129 38.5507 2.73699 38.6314 2.54288C38.7121 2.34877 38.7531 2.14042 38.7518 1.93019C38.7687 1.50651 38.6177 1.09326 38.3318 0.780194C38.2024 0.644459 38.0474 0.535693 37.8758 0.460173C37.7041 0.384653 37.5192 0.343876 37.3318 0.340194C37.126 0.329879 36.9205 0.363819 36.729 0.439724C36.5375 0.515629 36.3646 0.631731 36.2218 0.780194ZM37.2918 0.850194C37.3877 0.842718 37.4841 0.854819 37.5753 0.885762C37.6664 0.916705 37.7502 0.965843 37.8218 1.03019C37.8776 1.09241 37.9205 1.16513 37.948 1.24411C37.9755 1.32308 37.987 1.40674 37.9818 1.49019C37.9858 1.56127 37.9755 1.63244 37.9515 1.69944C37.9274 1.76645 37.8901 1.82792 37.8418 1.88019C37.7482 1.97547 37.6245 2.03552 37.4918 2.05019L38.1618 2.91019H37.6718L37.0518 2.12019V2.91019H36.6418V0.850194H37.2918ZM37.0518 1.78019H37.2218C37.3122 1.78594 37.4015 1.75737 37.4718 1.70019C37.4989 1.67261 37.52 1.63972 37.5338 1.60357C37.5475 1.56743 37.5537 1.52882 37.5518 1.49019C37.5543 1.4515 37.5485 1.41271 37.5347 1.37648C37.5208 1.34024 37.4994 1.3074 37.4718 1.28019C37.4041 1.23473 37.323 1.21358 37.2418 1.22019H37.0518V1.78019Z" fill="white"/>
<path d="M45.0992 32.9103C42.9258 32.6153 40.8436 31.8472 38.9992 30.6603C37.5771 29.714 36.3569 28.4948 35.4094 27.0735C34.4618 25.6522 33.8058 24.057 33.4792 22.3803C31.3274 21.9312 29.1443 21.647 26.9492 21.5303C28.0092 29.5303 32.2192 33.8203 35.8292 36.1003C38.5163 37.791 41.553 38.8477 44.7092 39.1903C44.7489 39.1944 44.789 39.1903 44.8271 39.1782C44.8651 39.1662 44.9003 39.1464 44.9303 39.1201C44.9603 39.0938 44.9846 39.0616 45.0017 39.0255C45.0187 38.9894 45.0281 38.9502 45.0292 38.9103L45.3692 33.2303C45.3748 33.1523 45.3497 33.0752 45.2993 33.0154C45.2488 32.9556 45.1771 32.9179 45.0992 32.9103V32.9103Z" fill="white"/>
<path d="M47.6489 20.2202C43.1443 17.5594 38.1711 15.7874 32.9989 15.0002V0.300179C32.9989 0.220614 32.9673 0.144308 32.911 0.0880467C32.8548 0.0317857 32.7785 0.000178697 32.6989 0.000178697H26.9989C26.9591 -0.00121815 26.9195 0.00558623 26.8825 0.0201683C26.8454 0.0347504 26.8118 0.0567981 26.7837 0.084939C26.7555 0.11308 26.7335 0.146712 26.7189 0.183742C26.7043 0.220771 26.6975 0.260406 26.6989 0.300179V14.3002C25.9989 14.3002 25.0389 14.2502 24.3189 14.2502C23.4389 14.2502 22.8989 14.2502 22.0589 14.3202V17.0002C22.0959 18.2297 22.0357 19.4602 21.8789 20.6802C21.8789 20.6802 23.3989 20.6002 24.3189 20.6002C27.3397 20.6131 30.3528 20.9077 33.3189 21.4802C37.1279 22.2075 40.7905 23.559 44.1589 25.4802C44.2246 25.5187 44.3024 25.5309 44.3767 25.5142C44.451 25.4975 44.5161 25.4531 44.5589 25.3902L47.7689 20.6902C47.7991 20.6538 47.8202 20.6107 47.8305 20.5646C47.8409 20.5184 47.8402 20.4705 47.8285 20.4246C47.8168 20.3788 47.7944 20.3364 47.7632 20.3009C47.732 20.2653 47.6928 20.2377 47.6489 20.2202Z" fill="white"/>
<path d="M14.8202 21.3602C10.9091 22.1207 7.14264 23.4943 3.66019 25.4302C3.59454 25.4687 3.51669 25.4809 3.44241 25.4642C3.36814 25.4475 3.30299 25.4031 3.26019 25.3402L0.050186 20.6402C0.0280224 20.6068 0.0127533 20.5694 0.00527796 20.5301C-0.00219737 20.4908 -0.00172771 20.4503 0.00665928 20.4112C0.0150463 20.3721 0.031181 20.335 0.054113 20.3022C0.077045 20.2694 0.106311 20.2415 0.140186 20.2202C4.65394 17.5558 9.63764 15.7837 14.8202 15.0002V0.300179C14.8202 0.220614 14.8518 0.144308 14.9081 0.0880467C14.9643 0.0317857 15.0406 0.000178697 15.1202 0.000178697H20.8102C20.85 -0.00121815 20.8896 0.00558623 20.9266 0.0201683C20.9637 0.0347504 20.9973 0.0567981 21.0254 0.084939C21.0536 0.11308 21.0756 0.146712 21.0902 0.183742C21.1048 0.220771 21.1116 0.260406 21.1102 0.300179V17.5502C21.1102 18.3802 21.1102 19.1902 21.0102 20.0102C20.3102 29.0002 15.8002 33.6802 12.0002 36.1002C9.31314 37.7909 6.27638 38.8477 3.12019 39.1902C3.08049 39.1943 3.04036 39.1902 3.00232 39.1782C2.96428 39.1661 2.92914 39.1463 2.8991 39.12C2.86906 39.0937 2.84477 39.0615 2.82775 39.0254C2.81073 38.9893 2.80135 38.9501 2.80019 38.9102L2.46019 33.2302C2.45442 33.1537 2.47815 33.0779 2.5265 33.0184C2.57486 32.9589 2.64416 32.9202 2.72019 32.9102C4.88663 32.6123 6.96176 31.8444 8.80019 30.6602C10.3948 29.6108 11.7523 28.2396 12.7856 26.6346C13.8189 25.0295 14.5051 23.2261 14.8002 21.3402" fill="white"/>
<path d="M80.8005 16.4799V13.8799H88.1705V19.2599C88.1705 23.1599 85.9505 25.4899 82.2305 25.4899C78.5105 25.4899 76.2305 23.1599 76.2305 19.2599V18.9199H79.2305V19.2599C79.2305 21.7699 80.0905 22.7999 82.2305 22.7999C84.3705 22.7999 85.2305 21.7999 85.2305 19.2599V16.4799H80.8005Z" fill="white"/>
<path d="M93.7786 22.6999H100.259V25.3099H90.8086V13.8799H93.8086L93.7786 22.6999Z" fill="white"/>
<path d="M121.192 22.9102C120.51 23.7565 119.639 24.4308 118.649 24.879C117.659 25.3271 116.578 25.5365 115.492 25.4902C111.492 25.4902 108.582 23.2002 108.582 19.5902C108.582 15.9802 111.492 13.7102 115.492 13.7102C116.576 13.6611 117.656 13.8683 118.644 14.3148C119.633 14.7613 120.502 15.4347 121.182 16.2802L118.842 17.8002C118.262 16.8702 117.132 16.4002 115.492 16.4002C112.892 16.4002 111.622 17.2102 111.622 19.5902C111.622 21.9702 112.892 22.7902 115.492 22.7902C117.132 22.7902 118.262 22.3202 118.852 21.3902L121.192 22.9102Z" fill="white"/>
<path d="M136.558 19.6C136.558 23.21 133.648 25.49 129.648 25.49C125.648 25.49 122.738 23.21 122.738 19.6C122.738 15.99 125.638 13.71 129.648 13.71C133.658 13.71 136.558 16 136.558 19.6ZM129.648 16.4C127.038 16.4 125.778 17.22 125.778 19.6C125.778 21.98 127.038 22.8 129.648 22.8C132.258 22.8 133.518 21.98 133.518 19.6C133.518 17.22 132.248 16.4 129.648 16.4V16.4Z" fill="white"/>
<path d="M141.892 22.6999H149.222V25.3099H138.922V13.8799H149.002V16.4799H141.862V18.1799H147.572V20.7799H141.862L141.892 22.6999Z" fill="white"/>
<path d="M154.63 22.6999H161.11V25.3099H151.66V13.8799H154.66L154.63 22.6999Z" fill="white"/>
<path d="M171.682 13.8799H174.682V25.3099H171.682V20.8899H166.172V25.3099H163.172V13.8799H166.172V18.2899H171.682V13.8799Z" fill="white"/>
<path d="M190.85 19.6C190.85 23.21 187.94 25.49 183.93 25.49C179.92 25.49 177 23.21 177 19.6C177 15.99 179.91 13.71 183.91 13.71C187.91 13.71 190.85 16 190.85 19.6ZM183.93 16.4C181.33 16.4 180.07 17.22 180.07 19.6C180.07 21.98 181.33 22.8 183.93 22.8C186.53 22.8 187.8 21.98 187.8 19.6C187.8 17.22 186.54 16.4 183.93 16.4V16.4Z" fill="white"/>
</g>
<defs>
<clipPath id="clip0">
<rect width="190.85" height="39.2" fill="white"/>
</clipPath>
</defs>
</svg>
