<svg xmlns="http://www.w3.org/2000/svg" viewBox="0 0 25.09 26.3"><defs><style>.cls-1{fill:#fff;}</style></defs><g id="Camada_2" data-name="Camada 2"><g id="Layer_1" data-name="Layer 1"><path class="cls-1" d="M2,20.33a.14.14,0,0,0-.21.05L0,22.9a.16.16,0,0,0,0,.22A24.14,24.14,0,0,0,12.46,26.3,25.29,25.29,0,0,0,25,23.14a.16.16,0,0,0,0-.23l-1.67-2.55a.15.15,0,0,0-.21-.05,22.39,22.39,0,0,1-10.72,2.62A20.73,20.73,0,0,1,2,20.33"/><path class="cls-1" d="M2,10.19a.15.15,0,0,0-.21,0L0,12.75a.17.17,0,0,0,0,.23,24.14,24.14,0,0,0,12.39,3.18A25.4,25.4,0,0,0,25,13a.16.16,0,0,0,0-.23l-1.67-2.55a.14.14,0,0,0-.21-.05,22.39,22.39,0,0,1-10.72,2.62A20.73,20.73,0,0,1,2,10.19"/><path class="cls-1" d="M2,0a.16.16,0,0,0-.21,0L0,2.61a.17.17,0,0,0,0,.23A24.14,24.14,0,0,0,12.46,6,25.26,25.26,0,0,0,25,2.85a.15.15,0,0,0,0-.22L23.39.07a.16.16,0,0,0-.21,0A22.26,22.26,0,0,1,12.46,2.65,20.59,20.59,0,0,1,2,0"/></g></g></svg>