<svg width="230" height="50" viewBox="0 0 230 50" fill="none" xmlns="http://www.w3.org/2000/svg">
<g opacity="0.9">
<path d="M1.033 16.7892V14.4756H0.225382C0.0751274 14.4756 0 14.408 0 14.2653V14.2315C0 14.0888 0.0751274 14.0212 0.225382 14.0212H2.36276C2.51301 14.0212 2.58814 14.0888 2.58814 14.2315V14.2653C2.58814 14.408 2.51301 14.4756 2.36276 14.4756H1.55138V16.7892C1.55138 16.9394 1.46874 17.0146 1.326 17.0146H1.25838C1.11564 17.0146 1.033 16.9394 1.033 16.7892ZM3.02763 14.2315C3.03515 14.0963 3.11403 14.0212 3.25302 14.0212H3.32814C3.45586 14.0212 3.5385 14.07 3.59485 14.1902L4.22216 15.5874C4.2785 15.7075 4.31607 15.8728 4.31607 15.8728H4.33109C4.33109 15.8728 4.37241 15.7075 4.425 15.5874L5.05232 14.1902C5.10491 14.0662 5.18755 14.0212 5.31902 14.0212H5.39415C5.52938 14.0212 5.61202 14.0963 5.61953 14.2315L5.82237 16.7817C5.82989 16.9319 5.75476 17.0146 5.6045 17.0146H5.53689C5.40166 17.0146 5.32653 16.9394 5.31151 16.8042L5.18755 15.2268C5.18003 15.1254 5.19506 15.024 5.19506 15.024H5.18003L4.60155 16.2897C4.55272 16.4136 4.47384 16.4662 4.34236 16.4662H4.30104C4.16957 16.4662 4.09069 16.4099 4.04185 16.2897L3.46337 15.024H3.4521C3.4521 15.024 3.46713 15.1254 3.45962 15.2268L3.3319 16.8042C3.32439 16.9394 3.2455 17.0146 3.11027 17.0146H3.03515C2.88489 17.0146 2.80976 16.9319 2.81728 16.7817L3.02763 14.2315Z" fill="#0023C8"/>
<path fill-rule="evenodd" clip-rule="evenodd" d="M50.4291 8.09074C49.8168 5.71707 48.5472 3.76781 46.5751 2.29929C44.3663 0.654243 41.8421 -0.00677891 39.1149 0.000732702C38.405 -0.00677891 37.7063 0.0458024 37.0039 0.135942C35.4525 0.331244 33.9612 0.793208 32.4511 1.18006C29.5437 1.92746 26.6513 2.72745 23.7364 3.44105C21.3473 4.03071 19.086 4.87577 17.0613 6.29546C15.2507 7.56117 13.658 9.05598 12.2832 10.7836C10.8332 12.6052 9.67251 14.5958 8.84986 16.7854C8.28265 18.2953 7.94082 19.8614 7.51635 21.4088C6.91158 23.6135 6.32183 25.8219 5.75086 28.0341C5.22872 30.0547 4.60141 32.049 4.44364 34.1523C4.25958 36.6611 4.50374 39.0949 5.50294 41.4235C6.49838 43.7371 8.06103 45.5286 10.3599 46.6253C11.4793 47.1586 12.6738 47.3765 13.8909 47.5642C15.5024 47.8121 17.0989 48.1389 18.7028 48.4168C21.1144 48.83 23.5373 49.1905 25.9376 49.6487C27.8721 50.0168 29.7991 50.0619 31.7262 49.7426C36.0723 49.029 39.6972 46.9258 42.7924 43.861C44.3663 42.3024 45.666 40.5259 46.7141 38.5653C47.6644 36.7851 48.3556 34.9185 48.8026 32.9467C49.2196 31.0988 49.2646 29.2171 49.46 27.3505C49.6065 25.9346 49.7041 24.5186 49.8319 23.1027C49.9934 21.3675 50.1737 19.6323 50.3315 17.8934C50.478 16.2559 50.5643 14.6108 50.7559 12.9808C50.9625 11.3245 50.8461 9.69822 50.4291 8.09074ZM17.5759 37.2433C16.0433 37.9156 14.6985 37.2546 14.2891 35.6321C14.2703 35.5607 14.244 35.4931 14.2177 35.4217C14.2177 34.9748 14.214 34.5278 14.214 34.0847C14.3116 33.3523 14.6347 32.6988 14.954 32.0453C16.757 28.3683 18.5638 24.6914 20.3744 21.0145C20.7688 20.2145 21.0881 19.3769 21.6666 18.6821C22.3202 17.8896 23.1015 17.2699 24.1233 17.0408C26.0503 16.6051 27.0344 17.9647 26.9105 19.5497C26.8354 20.5037 26.3621 21.3112 25.9676 22.1487C25.7873 22.5281 25.607 22.9074 25.4267 23.2905C24.9083 24.3121 24.4087 25.3449 23.9505 26.4003C23.3795 27.4294 22.9137 28.5035 22.3991 29.5627C21.5501 31.3091 20.7162 33.0668 19.8711 34.8133C19.3602 35.8612 18.6765 36.7588 17.5759 37.2433ZM42.6196 13.2475C42.4018 13.9085 42.1275 14.547 41.7068 15.1066C41.5641 15.2793 41.4213 15.4521 41.2786 15.6249C41.1471 15.7488 41.0194 15.8728 40.8879 16.0005C40.6964 16.1469 40.5048 16.2934 40.3095 16.4399C39.7197 16.8605 39.0511 17.1234 38.3674 17.345C38.2247 17.3751 38.0932 17.454 37.9429 17.4202C37.7664 17.4277 37.5823 17.4014 37.4171 17.4953C37.2405 17.499 37.0564 17.4652 36.8949 17.5704C36.8949 17.5704 36.8949 17.5704 36.8949 17.5666C36.7559 17.5441 36.632 17.5591 36.5794 17.7169C36.2413 18.4605 35.8469 19.1816 35.5539 19.9478C35.3172 20.2896 35.1933 20.6877 35.013 21.0595C34.7951 21.529 34.5772 22.0022 34.3631 22.4717C34.0964 22.9262 33.8936 23.4069 33.6945 23.8914C33.3714 24.466 33.1198 25.0707 32.8493 25.6679C32.5263 26.3477 32.1957 27.0237 31.8802 27.7036C31.4369 28.6575 31.0049 29.6115 30.5692 30.5692C29.9982 31.7598 29.4235 32.9542 28.8563 34.1485C28.4318 35.0386 28.0712 35.9663 27.3613 36.6912C26.6626 37.4048 25.8549 37.9118 24.852 38.0132C23.2781 38.1672 22.0385 37.2057 21.7229 35.6321C21.5051 34.5466 21.7004 33.5175 22.1737 32.5298C22.9175 30.9786 23.665 29.4312 24.4087 27.8801C24.4613 27.7712 24.5027 27.651 24.5477 27.5383C25.3403 25.9346 26.1442 24.3384 26.8541 22.6933C27.2673 22.0473 27.5378 21.3337 27.8759 20.6502C28.4281 19.5347 28.9577 18.4079 29.4949 17.2849C29.5399 17.1873 29.57 17.0784 29.6038 16.977C30.0358 16.1056 30.4753 15.2343 30.8998 14.3592C31.1777 13.7808 31.4444 13.1949 31.8501 12.6916C32.7141 11.7339 33.7245 10.9977 35.0017 10.7123C36.3991 10.4006 37.8002 10.1001 39.2126 9.87099C40.4409 9.67193 41.5566 9.93484 42.3229 11.0428C42.3642 11.1142 42.4018 11.1893 42.4431 11.2606C42.5257 11.516 42.6084 11.7677 42.691 12.0193C42.706 12.4324 42.676 12.8418 42.6196 13.2475Z" fill="#0023C8"/>
<path d="M74.6144 40.4331L62.4287 21.9321V40.4331H55.3066V9.52287H62.7443L74.1261 26.8146V9.52287H81.2519V40.4331H74.6144Z" fill="#0023C8"/>
<path d="M85.7026 40.4331V9.52287H104.969V15.6599H93.2304V21.3048H102.189L102.148 27.6221H93.2304V34.2962H105.371V40.4331H85.7026V40.4331Z" fill="#0023C8"/>
<path d="M120.621 40.7918C116.455 40.7918 112.962 39.8942 109.821 38.4632L110.941 31.9244C114.122 33.6257 117.661 34.79 120.752 34.79C122.946 34.79 124.471 33.8511 124.471 32.0108C124.471 30.2643 123.573 29.4568 119.227 27.8005C113.044 25.4268 110.355 23.41 110.355 18.3021C110.355 12.3454 115.013 9.16419 120.929 9.16419C124.959 9.16419 127.559 9.92662 130.248 11.2261L129.084 17.6786C126.304 16.0674 123.393 15.1697 121.019 15.1697C118.69 15.1697 117.571 16.1537 117.571 17.5885C117.571 19.1584 118.423 19.9171 122.274 21.3968C128.994 23.8607 131.683 26.1893 131.683 31.1169C131.687 37.8323 126.759 40.7918 120.621 40.7918Z" fill="#0023C8"/>
<path d="M146.934 40.7918C142.768 40.7918 139.271 39.8942 136.134 38.4632L137.254 31.9244C140.435 33.6257 143.974 34.79 147.065 34.79C149.259 34.79 150.784 33.8511 150.784 32.0108C150.784 30.2643 149.886 29.4568 145.54 27.8005C139.357 25.4268 136.671 23.41 136.671 18.3021C136.671 12.3454 141.329 9.16419 147.246 9.16419C151.276 9.16419 153.876 9.92662 156.565 11.2261L155.401 17.6786C152.621 16.0674 149.71 15.1697 147.336 15.1697C145.007 15.1697 143.887 16.1537 143.887 17.5885C143.887 19.1584 144.736 19.9171 148.59 21.3968C155.311 23.8607 158 26.1893 158 31.1169C158 37.8323 153.072 40.7918 146.934 40.7918Z" fill="#0023C8"/>
<path d="M192.927 19.9238C194.149 19.8917 195.367 20.0784 196.524 20.4751C197.426 20.7943 198.236 21.3296 198.884 22.0343C199.489 22.725 199.926 23.5464 200.16 24.4342C200.423 25.4339 200.551 26.4643 200.541 27.498V39.8718L199.265 40.0789C198.719 40.1702 198.103 40.2535 197.419 40.3286C196.734 40.4047 195.991 40.4717 195.193 40.5357C194.395 40.5996 193.6 40.6331 192.811 40.6331C191.774 40.6415 190.739 40.526 189.729 40.289C188.855 40.0893 188.027 39.721 187.293 39.2048C186.6 38.6998 186.049 38.0242 185.694 37.2435C185.29 36.3208 185.095 35.3205 185.122 34.3138C185.094 33.3326 185.324 32.3615 185.788 31.4967C186.222 30.7202 186.844 30.0656 187.598 29.5932C188.417 29.086 189.319 28.7254 190.262 28.5273C191.312 28.2945 192.385 28.1791 193.46 28.1832C193.828 28.1834 194.196 28.2027 194.563 28.2411C194.943 28.2776 195.306 28.3294 195.65 28.3933C195.994 28.4573 196.289 28.5121 196.542 28.5639C196.795 28.6156 196.975 28.6522 197.075 28.6796V27.6898C197.075 27.1071 197.012 26.5261 196.886 25.9569C196.768 25.4067 196.534 24.8877 196.201 24.4342C195.847 23.9705 195.382 23.6038 194.849 23.3683C194.144 23.0757 193.385 22.9396 192.623 22.9693C191.596 22.9575 190.57 23.04 189.559 23.216C188.89 23.3235 188.233 23.4959 187.598 23.7307L187.177 20.7979C187.915 20.5191 188.681 20.321 189.461 20.2071C190.606 20.0116 191.766 19.9168 192.927 19.9238V19.9238ZM193.232 37.6638C194.069 37.6638 194.812 37.6425 195.458 37.6059C196.002 37.5804 196.543 37.5101 197.075 37.3958V31.4967C196.68 31.3303 196.264 31.2206 195.839 31.1708C195.152 31.0753 194.458 31.0315 193.765 31.0399C193.198 31.0415 192.633 31.0791 192.071 31.1525C191.503 31.2205 190.949 31.381 190.433 31.6276C189.952 31.8604 189.529 32.1987 189.196 32.6174C188.846 33.0965 188.671 33.6814 188.7 34.2742C188.7 35.5431 189.106 36.4253 189.918 36.9207C190.73 37.4161 191.835 37.6638 193.232 37.6638Z" fill="#0023C8"/>
<path d="M220.334 40.2036C219.621 38.3763 218.866 36.2891 218.068 33.9421C217.27 31.595 216.54 29.1525 215.878 26.6146C215.218 29.1525 214.496 31.595 213.71 33.9421C212.924 36.2891 212.175 38.3763 211.462 40.2036H208.377C207.208 37.5906 206.066 34.609 204.951 31.259C203.836 27.909 202.784 24.2919 201.793 20.4079H205.6C205.854 21.6018 206.158 22.8961 206.513 24.2909C206.87 25.6858 207.241 27.0836 207.637 28.4785C208.033 29.8733 208.441 31.2194 208.874 32.5137C209.306 33.8081 209.711 34.9501 210.092 35.9034C210.524 34.7095 210.95 33.4467 211.368 32.1148C211.786 30.7829 212.186 29.4378 212.568 28.0795C212.95 26.7212 213.311 25.3883 213.652 24.0808C213.993 22.7733 214.292 21.549 214.547 20.4079H217.477C217.707 21.551 217.986 22.7753 218.315 24.0808C218.644 25.3863 218.999 26.7192 219.381 28.0795C219.762 29.4378 220.162 30.7829 220.581 32.1148C220.999 33.4467 221.424 34.7095 221.857 35.9034C222.238 34.939 222.637 33.8091 223.054 32.5137C223.47 31.2184 223.883 29.8733 224.293 28.4785C224.699 27.0836 225.08 25.6878 225.435 24.2909C225.79 22.8941 226.094 21.5997 226.346 20.4079H230C229.012 24.2919 227.958 27.909 226.839 31.259C225.72 34.609 224.579 37.5906 223.416 40.2036H220.334Z" fill="#0023C8"/>
<path d="M171.691 37.0153V11.3845L168 12.0758V40.2131H183.873V37.0153H171.691Z" fill="#0023C8"/>
</g>
</svg>
