<svg width="158" height="51" viewBox="0 0 158 51" fill="none" xmlns="http://www.w3.org/2000/svg">
<g opacity="0.9">
<path d="M1.033 17.4047V15.0911H0.225382C0.0751274 15.0911 0 15.0235 0 14.8808V14.847C0 14.7043 0.0751274 14.6367 0.225382 14.6367H2.36276C2.51301 14.6367 2.58814 14.7043 2.58814 14.847V14.8808C2.58814 15.0235 2.51301 15.0911 2.36276 15.0911H1.55138V17.4047C1.55138 17.5549 1.46874 17.6301 1.326 17.6301H1.25838C1.11564 17.6301 1.033 17.5549 1.033 17.4047ZM3.02763 14.847C3.03515 14.7118 3.11403 14.6367 3.25302 14.6367H3.32814C3.45586 14.6367 3.5385 14.6855 3.59485 14.8057L4.22216 16.2029C4.2785 16.323 4.31607 16.4883 4.31607 16.4883H4.33109C4.33109 16.4883 4.37241 16.323 4.425 16.2029L5.05232 14.8057C5.10491 14.6818 5.18755 14.6367 5.31902 14.6367H5.39415C5.52938 14.6367 5.61202 14.7118 5.61953 14.847L5.82237 17.3972C5.82989 17.5474 5.75476 17.6301 5.6045 17.6301H5.53689C5.40166 17.6301 5.32653 17.5549 5.31151 17.4197L5.18755 15.8423C5.18003 15.7409 5.19506 15.6395 5.19506 15.6395H5.18003L4.60155 16.9052C4.55272 17.0291 4.47384 17.0817 4.34236 17.0817H4.30104C4.16957 17.0817 4.09069 17.0254 4.04185 16.9052L3.46337 15.6395H3.4521C3.4521 15.6395 3.46713 15.7409 3.45962 15.8423L3.3319 17.4197C3.32439 17.5549 3.2455 17.6301 3.11027 17.6301H3.03515C2.88489 17.6301 2.80976 17.5474 2.81728 17.3972L3.02763 14.847Z" fill="#0023C8"/>
<path fill-rule="evenodd" clip-rule="evenodd" d="M50.4291 8.70625C49.8168 6.33258 48.5472 4.38331 46.5751 2.91479C44.3663 1.26975 41.8421 0.60873 39.1149 0.616242C38.405 0.60873 37.7063 0.661311 37.0039 0.751451C35.4525 0.946753 33.9612 1.40872 32.4511 1.79556C29.5437 2.54297 26.6513 3.34296 23.7364 4.05656C21.3473 4.64622 19.086 5.49128 17.0613 6.91097C15.2507 8.17668 13.658 9.67149 12.2832 11.3992C10.8332 13.2207 9.67251 15.2113 8.84986 17.4009C8.28265 18.9108 7.94082 20.4769 7.51635 22.0243C6.91158 24.229 6.32183 26.4374 5.75086 28.6496C5.22872 30.6702 4.60141 32.6645 4.44364 34.7678C4.25958 37.2767 4.50374 39.7104 5.50294 42.039C6.49838 44.3526 8.06103 46.1441 10.3599 47.2408C11.4793 47.7741 12.6738 47.992 13.8909 48.1798C15.5024 48.4276 17.0989 48.7544 18.7028 49.0323C21.1144 49.4455 23.5373 49.806 25.9376 50.2642C27.8721 50.6323 29.7991 50.6774 31.7262 50.3581C36.0723 49.6445 39.6972 47.5413 42.7924 44.4765C44.3663 42.9179 45.666 41.1414 46.7141 39.1808C47.6644 37.4006 48.3556 35.534 48.8026 33.5622C49.2196 31.7143 49.2646 29.8326 49.46 27.966C49.6065 26.5501 49.7041 25.1341 49.8319 23.7182C49.9934 21.983 50.1737 20.2478 50.3315 18.5089C50.478 16.8714 50.5643 15.2263 50.7559 13.5963C50.9625 11.94 50.8461 10.3137 50.4291 8.70625ZM17.5759 37.8588C16.0433 38.5311 14.6985 37.8701 14.2891 36.2476C14.2703 36.1762 14.244 36.1086 14.2177 36.0372C14.2177 35.5903 14.214 35.1434 14.214 34.7002C14.3116 33.9678 14.6347 33.3143 14.954 32.6608C16.757 28.9838 18.5638 25.3069 20.3744 21.63C20.7688 20.83 21.0881 19.9924 21.6666 19.2976C22.3202 18.5051 23.1015 17.8854 24.1233 17.6563C26.0503 17.2207 27.0344 18.5803 26.9105 20.1652C26.8354 21.1192 26.3621 21.9267 25.9676 22.7642C25.7873 23.1436 25.607 23.5229 25.4267 23.906C24.9083 24.9276 24.4087 25.9604 23.9505 27.0158C23.3795 28.0449 22.9137 29.119 22.3991 30.1782C21.5501 31.9246 20.7162 33.6823 19.8711 35.4288C19.3602 36.4767 18.6765 37.3743 17.5759 37.8588ZM42.6196 13.863C42.4018 14.524 42.1275 15.1625 41.7068 15.7221C41.5641 15.8949 41.4213 16.0676 41.2786 16.2404C41.1471 16.3643 41.0194 16.4883 40.8879 16.616C40.6964 16.7624 40.5048 16.9089 40.3095 17.0554C39.7197 17.4761 39.0511 17.739 38.3674 17.9605C38.2247 17.9906 38.0932 18.0695 37.9429 18.0357C37.7664 18.0432 37.5823 18.0169 37.4171 18.1108C37.2405 18.1145 37.0564 18.0807 36.8949 18.1859C36.8949 18.1859 36.8949 18.1859 36.8949 18.1821C36.7559 18.1596 36.632 18.1746 36.5794 18.3324C36.2413 19.076 35.8469 19.7971 35.5539 20.5633C35.3172 20.9051 35.1933 21.3032 35.013 21.675C34.7951 22.1445 34.5772 22.6177 34.3631 23.0872C34.0964 23.5417 33.8936 24.0224 33.6945 24.5069C33.3714 25.0816 33.1198 25.6862 32.8493 26.2834C32.5263 26.9632 32.1957 27.6393 31.8802 28.3191C31.4369 29.273 31.0049 30.227 30.5692 31.1847C29.9982 32.3753 29.4235 33.5697 28.8563 34.764C28.4318 35.6541 28.0712 36.5818 27.3613 37.3067C26.6626 38.0203 25.8549 38.5273 24.852 38.6287C23.2781 38.7827 22.0385 37.8212 21.7229 36.2476C21.5051 35.1621 21.7004 34.133 22.1737 33.1453C22.9175 31.5941 23.665 30.0467 24.4087 28.4956C24.4613 28.3867 24.5027 28.2665 24.5477 28.1538C25.3403 26.5501 26.1442 24.9539 26.8541 23.3088C27.2673 22.6628 27.5378 21.9492 27.8759 21.2657C28.4281 20.1502 28.9577 19.0234 29.4949 17.9005C29.5399 17.8028 29.57 17.6939 29.6038 17.5925C30.0358 16.7211 30.4753 15.8498 30.8998 14.9747C31.1777 14.3963 31.4444 13.8104 31.8501 13.3071C32.7141 12.3494 33.7245 11.6132 35.0017 11.3278C36.3991 11.0161 37.8002 10.7156 39.2126 10.4865C40.4409 10.2874 41.5566 10.5503 42.3229 11.6583C42.3642 11.7297 42.4018 11.8048 42.4431 11.8761C42.5257 12.1315 42.6084 12.3832 42.691 12.6348C42.706 13.048 42.676 13.4573 42.6196 13.863Z" fill="#0023C8"/>
<path d="M74.6144 41.0487L62.4287 22.5476V41.0487H55.3066V10.1384H62.7443L74.1261 27.4301V10.1384H81.2519V41.0487H74.6144Z" fill="#0023C8"/>
<path d="M85.7026 41.0487V10.1384H104.969V16.2754H93.2304V21.9203H102.189L102.148 28.2376H93.2304V34.9117H105.371V41.0487H85.7026V41.0487Z" fill="#0023C8"/>
<path d="M120.621 41.4073C116.455 41.4073 112.962 40.5097 109.821 39.0787L110.941 32.5399C114.122 34.2413 117.661 35.4056 120.752 35.4056C122.946 35.4056 124.471 34.4666 124.471 32.6263C124.471 30.8798 123.573 30.0723 119.227 28.416C113.044 26.0423 110.355 24.0255 110.355 18.9176C110.355 12.9609 115.013 9.7797 120.929 9.7797C124.959 9.7797 127.559 10.5421 130.248 11.8416L129.084 18.2941C126.304 16.6829 123.393 15.7852 121.019 15.7852C118.69 15.7852 117.571 16.7693 117.571 18.204C117.571 19.7739 118.423 20.5326 122.274 22.0124C128.994 24.4762 131.683 26.8048 131.683 31.7324C131.687 38.4478 126.759 41.4073 120.621 41.4073Z" fill="#0023C8"/>
<path d="M146.934 41.4073C142.768 41.4073 139.271 40.5097 136.134 39.0787L137.254 32.5399C140.435 34.2413 143.974 35.4056 147.065 35.4056C149.259 35.4056 150.784 34.4666 150.784 32.6263C150.784 30.8798 149.886 30.0723 145.54 28.416C139.357 26.0423 136.671 24.0255 136.671 18.9176C136.671 12.9609 141.329 9.7797 147.246 9.7797C151.276 9.7797 153.876 10.5421 156.565 11.8416L155.401 18.2941C152.621 16.6829 149.71 15.7852 147.336 15.7852C145.007 15.7852 143.887 16.7693 143.887 18.204C143.887 19.7739 144.736 20.5326 148.59 22.0124C155.311 24.4762 158 26.8048 158 31.7324C158 38.4478 153.072 41.4073 146.934 41.4073Z" fill="#0023C8"/>
</g>
</svg>
