<svg width="22" height="18" viewBox="0 0 22 18" fill="none" xmlns="http://www.w3.org/2000/svg">
<g clip-path="url(#clip0)">
<path d="M0 15.6204C2.03479 16.9266 4.40201 17.6208 6.82 17.6204C8.53322 17.6308 10.2305 17.2912 11.8078 16.6224C13.3851 15.9536 14.8092 14.9696 15.9927 13.7309C17.1762 12.4921 18.0943 11.0247 18.6905 9.41851C19.2867 7.81235 19.5486 6.10133 19.46 4.39037C20.3291 3.75975 21.0805 2.98123 21.68 2.09037C20.8687 2.44689 20.0096 2.68272 19.13 2.79037C20.0567 2.22924 20.7493 1.35199 21.08 0.32037C20.2082 0.838022 19.2545 1.20325 18.26 1.40037C17.5899 0.684857 16.7023 0.210629 15.7351 0.0513367C14.7678 -0.107956 13.775 0.0566022 12.9109 0.519454C12.0467 0.982305 11.3596 1.71755 10.9562 2.61099C10.5528 3.50444 10.4557 4.50608 10.68 5.46037C8.91011 5.3754 7.17818 4.91719 5.59783 4.11581C4.01747 3.31444 2.6244 2.18799 1.51 0.81037C0.940465 1.79005 0.766137 2.95011 1.02258 4.05391C1.27902 5.15772 1.9469 6.12211 2.89 6.75037C2.18932 6.72714 1.50403 6.53869 0.89 6.20037C0.87693 7.23652 1.22668 8.24461 1.87868 9.05001C2.53067 9.85542 3.44384 10.4074 4.46 10.6104C3.80774 10.7865 3.12424 10.8138 2.46 10.6904C2.74521 11.5745 3.29939 12.3476 4.04519 12.9015C4.79098 13.4555 5.69114 13.7627 6.62 13.7804C4.7435 15.245 2.36317 15.9066 0 15.6204H0Z" fill="white"/>
</g>
<defs>
<clipPath id="clip0">
<rect width="21.68" height="17.62" fill="white"/>
</clipPath>
</defs>
</svg>
