<svg xmlns="http://www.w3.org/2000/svg" viewBox="0 0 21.68 17.62"><defs><style>.cls-1{fill:#0023c8;}</style></defs><g id="Camada_2" data-name="Camada 2"><g id="Layer_1" data-name="Layer 1"><path class="cls-1" d="M0,15.62a12.62,12.62,0,0,0,6.82,2A12.58,12.58,0,0,0,19.46,4.39a9.16,9.16,0,0,0,2.22-2.3,9.08,9.08,0,0,1-2.55.7A4.49,4.49,0,0,0,21.08.32,8.92,8.92,0,0,1,18.26,1.4a4.45,4.45,0,0,0-7.58,4.06A12.57,12.57,0,0,1,1.51.81,4.45,4.45,0,0,0,2.89,6.75a4.45,4.45,0,0,1-2-.55,4.44,4.44,0,0,0,3.57,4.41,4.51,4.51,0,0,1-2,.08,4.46,4.46,0,0,0,4.16,3.09A9,9,0,0,1,0,15.62Z"/></g></g></svg>